<mxfile host="app.diagrams.net" modified="2022-02-16T07:47:11.682Z" agent="5.0 (Windows NT 10.0; Win64; x64) AppleWebKit/537.36 (KHTML, like Gecko) Chrome/97.0.4692.71 Safari/537.36" etag="CTfFmULa-JwwY58QDhYK" version="16.5.6" type="github">
  <diagram id="bmvhnpPOqGdYk1_kegV5" name="Page-1">
    <mxGraphModel dx="1830" dy="1004" grid="1" gridSize="10" guides="1" tooltips="1" connect="1" arrows="1" fold="1" page="1" pageScale="1" pageWidth="900" pageHeight="1600" math="0" shadow="0">
      <root>
        <mxCell id="0" />
        <mxCell id="1" parent="0" />
        <mxCell id="U8GWJ_23PMlmX3316QyJ-1" value="" style="rounded=0;whiteSpace=wrap;html=1;fillColor=none;" vertex="1" parent="1">
          <mxGeometry x="220" y="450" width="320" height="130" as="geometry" />
        </mxCell>
        <mxCell id="U8GWJ_23PMlmX3316QyJ-2" value="&lt;b&gt;&lt;font style=&quot;font-size: 16px&quot;&gt;逻辑相关代码&lt;/font&gt;&lt;/b&gt;" style="rounded=0;whiteSpace=wrap;html=1;fillColor=#fff2cc;strokeColor=#d6b656;" vertex="1" parent="1">
          <mxGeometry x="230" y="510" width="130" height="60" as="geometry" />
        </mxCell>
        <mxCell id="U8GWJ_23PMlmX3316QyJ-3" value="&lt;span style=&quot;font-size: 16px&quot;&gt;&lt;b&gt;协议接口相关代码&lt;/b&gt;&lt;/span&gt;" style="rounded=0;whiteSpace=wrap;html=1;fillColor=#dae8fc;strokeColor=#6c8ebf;" vertex="1" parent="1">
          <mxGeometry x="385" y="510" width="130" height="60" as="geometry" />
        </mxCell>
        <mxCell id="U8GWJ_23PMlmX3316QyJ-4" value="" style="ellipse;whiteSpace=wrap;html=1;aspect=fixed;fontSize=16;fillColor=#A20025;strokeColor=#D6B656;" vertex="1" parent="1">
          <mxGeometry x="554" y="821" width="10" height="10" as="geometry" />
        </mxCell>
        <mxCell id="U8GWJ_23PMlmX3316QyJ-5" value="" style="ellipse;whiteSpace=wrap;html=1;aspect=fixed;fontSize=16;fillColor=#1BA1E2;strokeColor=#82B366;" vertex="1" parent="1">
          <mxGeometry x="554" y="843" width="10" height="10" as="geometry" />
        </mxCell>
        <mxCell id="U8GWJ_23PMlmX3316QyJ-6" value="&lt;font style=&quot;font-size: 14px&quot;&gt;&lt;b&gt;public &lt;font color=&quot;#ff0000&quot;&gt;non-virtual interface&lt;/font&gt;&lt;/b&gt;&lt;/font&gt;" style="text;html=1;align=center;verticalAlign=middle;resizable=0;points=[];autosize=1;strokeColor=none;fillColor=none;fontSize=16;" vertex="1" parent="1">
          <mxGeometry x="564" y="811" width="200" height="30" as="geometry" />
        </mxCell>
        <mxCell id="U8GWJ_23PMlmX3316QyJ-7" value="&lt;font style=&quot;font-size: 14px&quot;&gt;&lt;b&gt;private virtual interface&lt;/b&gt;&lt;/font&gt;" style="text;html=1;align=center;verticalAlign=middle;resizable=0;points=[];autosize=1;strokeColor=none;fillColor=none;fontSize=16;" vertex="1" parent="1">
          <mxGeometry x="566" y="831" width="170" height="30" as="geometry" />
        </mxCell>
        <mxCell id="U8GWJ_23PMlmX3316QyJ-8" value="&lt;font color=&quot;#000000&quot; style=&quot;font-size: 16px&quot;&gt;&lt;b&gt;调用RondaCache使用 NVI&lt;/b&gt;&lt;/font&gt;" style="text;html=1;align=center;verticalAlign=middle;resizable=0;points=[];autosize=1;strokeColor=none;fillColor=none;fontSize=14;fontColor=#FF0000;" vertex="1" parent="1">
          <mxGeometry x="285" y="470" width="210" height="20" as="geometry" />
        </mxCell>
        <mxCell id="U8GWJ_23PMlmX3316QyJ-9" value="是不是要把继承关系写出来" style="text;html=1;align=center;verticalAlign=middle;resizable=0;points=[];autosize=1;strokeColor=none;fillColor=none;fontSize=16;fontColor=#000000;" vertex="1" parent="1">
          <mxGeometry x="330" y="710" width="210" height="20" as="geometry" />
        </mxCell>
        <mxCell id="U8GWJ_23PMlmX3316QyJ-12" value="RondaCacheClient" style="swimlane;fontStyle=3;align=center;verticalAlign=top;childLayout=stackLayout;horizontal=1;startSize=26;horizontalStack=0;resizeParent=1;resizeParentMax=0;resizeLast=0;collapsible=1;marginBottom=0;fontSize=16;fontColor=#000000;strokeColor=#D6B656;fillColor=#DAE8FC;" vertex="1" parent="1">
          <mxGeometry x="310" y="870" width="230" height="86" as="geometry" />
        </mxCell>
        <mxCell id="U8GWJ_23PMlmX3316QyJ-34" value="&lt;b&gt;&lt;font style=&quot;font-size: 16px&quot;&gt;逻辑相关代码&lt;/font&gt;&lt;/b&gt;" style="rounded=0;whiteSpace=wrap;html=1;fillColor=#a20025;strokeColor=#6F0000;fontColor=#ffffff;" vertex="1" parent="U8GWJ_23PMlmX3316QyJ-12">
          <mxGeometry y="26" width="230" height="60" as="geometry" />
        </mxCell>
        <mxCell id="U8GWJ_23PMlmX3316QyJ-23" value="" style="endArrow=block;dashed=1;endFill=0;endSize=12;html=1;rounded=0;fontSize=16;fontColor=#000000;exitX=0.5;exitY=0;exitDx=0;exitDy=0;entryX=0.5;entryY=1;entryDx=0;entryDy=0;" edge="1" parent="1" source="U8GWJ_23PMlmX3316QyJ-28" target="U8GWJ_23PMlmX3316QyJ-35">
          <mxGeometry width="160" relative="1" as="geometry">
            <mxPoint x="430" y="970" as="sourcePoint" />
            <mxPoint x="420" y="910" as="targetPoint" />
          </mxGeometry>
        </mxCell>
        <mxCell id="U8GWJ_23PMlmX3316QyJ-24" value="TafClient" style="swimlane;fontStyle=1;align=center;verticalAlign=top;childLayout=stackLayout;horizontal=1;startSize=26;horizontalStack=0;resizeParent=1;resizeParentMax=0;resizeLast=0;collapsible=1;marginBottom=0;fontSize=16;fontColor=#000000;strokeColor=#D6B656;fillColor=#DAE8FC;" vertex="1" parent="1">
          <mxGeometry x="490" y="1060" width="160" height="50" as="geometry" />
        </mxCell>
        <mxCell id="U8GWJ_23PMlmX3316QyJ-39" value="&lt;span style=&quot;font-size: 16px&quot;&gt;&lt;b&gt;协议接口相关代码&lt;/b&gt;&lt;/span&gt;" style="rounded=0;whiteSpace=wrap;html=1;fillColor=#1ba1e2;strokeColor=#006EAF;fontColor=#ffffff;" vertex="1" parent="U8GWJ_23PMlmX3316QyJ-24">
          <mxGeometry y="26" width="160" height="24" as="geometry" />
        </mxCell>
        <mxCell id="U8GWJ_23PMlmX3316QyJ-28" value="TrpcClient" style="swimlane;fontStyle=1;align=center;verticalAlign=top;childLayout=stackLayout;horizontal=1;startSize=26;horizontalStack=0;resizeParent=1;resizeParentMax=0;resizeLast=0;collapsible=1;marginBottom=0;fontSize=16;fontColor=#000000;strokeColor=#D6B656;fillColor=#DAE8FC;" vertex="1" parent="1">
          <mxGeometry x="200" y="1060" width="160" height="50" as="geometry" />
        </mxCell>
        <mxCell id="U8GWJ_23PMlmX3316QyJ-40" value="&lt;span style=&quot;font-size: 16px&quot;&gt;&lt;b&gt;协议接口相关代码&lt;/b&gt;&lt;/span&gt;" style="rounded=0;whiteSpace=wrap;html=1;fillColor=#1ba1e2;strokeColor=#006EAF;fontColor=#ffffff;" vertex="1" parent="U8GWJ_23PMlmX3316QyJ-28">
          <mxGeometry y="26" width="160" height="24" as="geometry" />
        </mxCell>
        <mxCell id="U8GWJ_23PMlmX3316QyJ-32" value="" style="endArrow=block;dashed=1;endFill=0;endSize=12;html=1;rounded=0;fontSize=16;fontColor=#000000;exitX=0.5;exitY=0;exitDx=0;exitDy=0;entryX=0.425;entryY=1.129;entryDx=0;entryDy=0;entryPerimeter=0;" edge="1" parent="1">
          <mxGeometry width="160" relative="1" as="geometry">
            <mxPoint x="1310" y="2030.65" as="sourcePoint" />
            <mxPoint x="1467.75" y="1860.004" as="targetPoint" />
          </mxGeometry>
        </mxCell>
        <mxCell id="U8GWJ_23PMlmX3316QyJ-33" value="" style="endArrow=block;dashed=1;endFill=0;endSize=12;html=1;rounded=0;fontSize=16;fontColor=#000000;exitX=0.5;exitY=0;exitDx=0;exitDy=0;entryX=0.5;entryY=1;entryDx=0;entryDy=0;" edge="1" parent="1" source="U8GWJ_23PMlmX3316QyJ-24" target="U8GWJ_23PMlmX3316QyJ-35">
          <mxGeometry width="160" relative="1" as="geometry">
            <mxPoint x="595" y="1080" as="sourcePoint" />
            <mxPoint x="580" y="940" as="targetPoint" />
          </mxGeometry>
        </mxCell>
        <mxCell id="U8GWJ_23PMlmX3316QyJ-38" value="" style="ellipse;whiteSpace=wrap;html=1;aspect=fixed;fontSize=16;fillColor=#D5E8D4;strokeColor=#82B366;" vertex="1" parent="1">
          <mxGeometry x="740" y="620" width="10" height="10" as="geometry" />
        </mxCell>
        <mxCell id="U8GWJ_23PMlmX3316QyJ-35" value="&lt;span style=&quot;font-size: 16px&quot;&gt;&lt;b&gt;协议接口相关代码&lt;/b&gt;&lt;/span&gt;" style="rounded=0;whiteSpace=wrap;html=1;fillColor=#1ba1e2;strokeColor=#006EAF;fontColor=#ffffff;" vertex="1" parent="1">
          <mxGeometry x="310" y="956" width="230" height="24" as="geometry" />
        </mxCell>
        <mxCell id="U8GWJ_23PMlmX3316QyJ-42" value="截图留白" style="text;html=1;align=center;verticalAlign=middle;resizable=0;points=[];autosize=1;strokeColor=none;fillColor=none;fontSize=16;fontColor=#000000;" vertex="1" parent="1">
          <mxGeometry x="80" y="910" width="80" height="20" as="geometry" />
        </mxCell>
      </root>
    </mxGraphModel>
  </diagram>
</mxfile>
